<svg width="24" height="21" viewBox="0 0 24 21" fill="none" xmlns="http://www.w3.org/2000/svg">
<path d="M17.3115 1C19.0417 1 20.4513 1.6 21.4258 2.57422C22.4002 3.54842 23 4.95753 23 6.68652C22.9999 8.56456 22.2685 10.1362 21.0977 11.5977C19.9076 13.083 18.3138 14.3949 16.6445 15.7646C15.099 17.0323 13.4106 18.4153 12.1006 19.9658C12.0809 19.989 12.0543 20 12.0303 20H11.9668C11.9545 19.9999 11.9418 19.9968 11.9297 19.9912L11.8955 19.9658C10.9146 18.803 9.71864 17.7353 8.53125 16.7393L7.35449 15.7656L6.12109 14.7451C4.91268 13.7282 3.79364 12.7108 2.90137 11.5967C1.73096 10.1353 1.00011 8.56412 1 6.68652C1 4.95755 1.59972 3.5484 2.57422 2.57422C3.54881 1.60001 4.95864 1 6.68945 1C8.5327 1 10.2278 2.35014 11.2744 3.44727L11.998 4.20605L12.7217 3.44727C13.7675 2.35102 15.4668 1.00005 17.3115 1Z" stroke="white" stroke-width="2"/>
</svg>
